<svg xmlns="http://www.w3.org/2000/svg" viewBox="0 0 24 24" fill="none" stroke="currentColor" stroke-width="2" stroke-linecap="round" stroke-linejoin="round" style="filter: drop-shadow(1.5px 1.5px 2px rgba(0,0,0,0.4));">
  <circle cx="12" cy="12" r="3"></circle>
  <path d="M19.4 15a1.65 1.65 0 0 0 .33 1.82l.06.06a2 2 0 1 1-2.83 2.83l-.06-.06A1.65 1.65 0 0 0 15 19.4a1.65 1.65 0 0 0-1 1.5V21a2 2 0 1 1-4 0v-.1a1.65 1.65 0 0 0-1-1.5 1.65 1.65 0 0 0-1.82.33l-.06.06a2 2 0 1 1-2.83-2.83l.06-.06A1.65 1.65 0 0 0 4.6 15a1.65 1.65 0 0 0-1.5-1H3a2 2 0 1 1 0-4h.1a1.65 1.65 0 0 0 1.5-1 1.65 1.65 0 0 0-.33-1.82l-.06-.06a2 2 0 1 1 2.83-2.83l.06.06A1.65 1.65 0 0 0 9 4.6a1.65 1.65 0 0 0 1-1.5V3a2 2 0 1 1 4 0v.1a1.65 1.65 0 0 0 1 1.5 1.65 1.65 0 0 0 1.82-.33l.06-.06a2 2 0 1 1 2.83 2.83l-.06.06A1.65 1.65 0 0 0 19.4 9c.63 0 1.18.37 1.5.9h.1a2 2 0 1 1 0 4h-.1c-.32.63-.87 1-1.5 1z"></path>
</svg>
